<svg width="441" height="87" viewBox="0 0 441 87" fill="none" xmlns="http://www.w3.org/2000/svg">
<path d="M96.6201 40.0244C97.9189 38.9762 99.3203 38.2015 100.824 37.7002C102.351 37.1989 104.117 36.9482 106.122 36.9482C110.748 36.9482 114.53 38.4749 117.47 41.5283C120.409 44.5817 121.879 48.501 121.879 53.2861C121.879 58.8232 120.124 63.1641 116.615 66.3086C113.106 69.4303 108.253 70.9912 102.055 70.9912C90.7298 70.9912 85.0674 65.7617 85.0674 55.3027V29.3262C85.0674 28.0957 84.999 27.207 84.8623 26.6602C84.7484 26.1133 84.5661 25.7715 84.3154 25.6348C84.2015 25.5892 84.0762 25.5322 83.9395 25.4639C83.8255 25.3727 83.6774 25.2816 83.4951 25.1904C82.2874 24.5752 81.6836 23.903 81.6836 23.1738C81.6836 22.832 81.7747 22.5244 81.957 22.251C82.1621 21.9548 82.4242 21.7041 82.7432 21.499C83.085 21.2712 83.5635 21.0319 84.1787 20.7812C84.8167 20.5078 85.5915 20.223 86.5029 19.9268C86.7308 19.8584 86.9245 19.8014 87.084 19.7559C87.2663 19.6875 87.4144 19.6305 87.5283 19.585C88.417 19.3115 89.1803 19.0837 89.8184 18.9014C90.4792 18.7191 91.0374 18.571 91.4932 18.457C91.9717 18.3203 92.3704 18.2292 92.6895 18.1836C93.0312 18.138 93.3389 18.1152 93.6123 18.1152C94.6833 18.1152 95.4466 18.4115 95.9023 19.0039C96.3809 19.5964 96.6201 20.6331 96.6201 22.1143V40.0244ZM96.6885 53.9014C96.6885 58.2992 97.167 61.4665 98.124 63.4033C99.1038 65.3174 100.676 66.2744 102.841 66.2744C105.097 66.2744 106.817 65.2946 108.002 63.335C109.187 61.3525 109.779 58.4928 109.779 54.7559C109.779 46.4388 107.558 42.2803 103.114 42.2803C102.226 42.2803 101.348 42.4854 100.482 42.8955C99.6393 43.3057 98.9102 43.8753 98.2949 44.6045C97.6797 45.3109 97.2581 46.2565 97.0303 47.4414C96.8024 48.5807 96.6885 50.734 96.6885 53.9014ZM127.074 53.9014C127.074 48.82 128.772 44.6842 132.167 41.4941C135.562 38.3268 140.051 36.7432 145.634 36.7432C151.011 36.7432 155.398 38.3496 158.793 41.5625C162.188 44.7526 163.886 48.8656 163.886 53.9014C163.886 58.9372 162.177 63.0387 158.759 66.2061C155.318 69.3962 150.886 70.9912 145.463 70.9912C139.949 70.9912 135.505 69.4189 132.133 66.2744C128.76 63.1299 127.074 59.0055 127.074 53.9014ZM139.242 53.9014C139.242 57.9346 139.755 60.9766 140.78 63.0273C141.828 65.0553 143.389 66.0693 145.463 66.0693C147.605 66.0693 149.177 65.0781 150.18 63.0957C151.205 61.1133 151.718 58.0485 151.718 53.9014C151.718 49.6175 151.216 46.5072 150.214 44.5703C149.234 42.6335 147.65 41.665 145.463 41.665C143.344 41.665 141.771 42.6562 140.746 44.6387C139.743 46.6211 139.242 49.7087 139.242 53.9014ZM169.252 53.9014C169.252 48.82 170.95 44.6842 174.345 41.4941C177.74 38.3268 182.229 36.7432 187.812 36.7432C193.189 36.7432 197.576 38.3496 200.971 41.5625C204.366 44.7526 206.063 48.8656 206.063 53.9014C206.063 58.9372 204.354 63.0387 200.937 66.2061C197.496 69.3962 193.064 70.9912 187.641 70.9912C182.126 70.9912 177.683 69.4189 174.311 66.2744C170.938 63.1299 169.252 59.0055 169.252 53.9014ZM181.42 53.9014C181.42 57.9346 181.933 60.9766 182.958 63.0273C184.006 65.0553 185.567 66.0693 187.641 66.0693C189.783 66.0693 191.355 65.0781 192.357 63.0957C193.383 61.1133 193.896 58.0485 193.896 53.9014C193.896 49.6175 193.394 46.5072 192.392 44.5703C191.412 42.6335 189.828 41.665 187.641 41.665C185.521 41.665 183.949 42.6562 182.924 44.6387C181.921 46.6211 181.42 49.7087 181.42 53.9014ZM213.515 29.3262C213.515 28.0729 213.446 27.1842 213.31 26.6602C213.196 26.1133 212.991 25.7715 212.694 25.6348C212.58 25.5892 212.455 25.5322 212.318 25.4639C212.182 25.3955 212.022 25.3158 211.84 25.2246C210.541 24.6094 209.892 23.9258 209.892 23.1738C209.892 22.3535 210.564 21.6471 211.908 21.0547C214.027 20.1888 215.964 19.5166 217.719 19.0381C219.473 18.5368 220.897 18.2861 221.991 18.2861C223.176 18.2861 224.008 18.5596 224.486 19.1064C224.965 19.6533 225.204 20.6559 225.204 22.1143V52.5684C228.166 50.8366 230.559 49.0934 232.382 47.3389C234.228 45.5615 235.15 44.1829 235.15 43.2031C235.15 42.9525 234.729 42.6107 233.886 42.1777C233.043 41.6992 232.621 41.1068 232.621 40.4004C232.621 38.9876 233.555 38.2812 235.424 38.2812H243.969C245.199 38.2812 246.054 38.4408 246.532 38.7598C247.011 39.056 247.25 39.5573 247.25 40.2637C247.25 41.0384 246.623 41.7334 245.37 42.3486C244.983 42.5309 244.641 42.7132 244.345 42.8955C244.049 43.0778 243.809 43.2487 243.627 43.4082C243.399 43.5905 243.023 43.9551 242.499 44.502C241.998 45.0488 241.348 45.7552 240.551 46.6211C239.753 47.487 238.979 48.2845 238.227 49.0137C237.497 49.7428 236.802 50.3923 236.142 50.9619C239.833 54.4482 243.103 58.5612 245.951 63.3008C246.202 63.7337 246.407 64.0983 246.566 64.3945C246.749 64.668 246.885 64.8617 246.977 64.9756C247.09 65.1123 247.626 65.4655 248.583 66.0352C249.517 66.582 249.984 67.2542 249.984 68.0518C249.984 68.7581 249.779 69.2594 249.369 69.5557C248.982 69.8519 248.275 70 247.25 70H234.809C233.783 70 233.043 69.8405 232.587 69.5215C232.154 69.1797 231.938 68.6442 231.938 67.915C231.938 67.2998 232.2 66.7871 232.724 66.377C233.271 65.9668 233.544 65.7048 233.544 65.5908C233.544 65.0895 233.008 64.0299 231.938 62.4121C230.912 60.8171 229.511 58.96 227.733 56.8408L225.204 58.4473V63.5742C225.204 64.8275 225.637 65.8301 226.503 66.582C227.369 67.334 227.802 67.9378 227.802 68.3936C227.802 68.986 227.619 69.4076 227.255 69.6582C226.89 69.8861 226.252 70 225.341 70H213.036C212.125 70 211.487 69.8861 211.122 69.6582C210.757 69.4076 210.575 68.986 210.575 68.3936C210.575 67.7783 211.054 67.1403 212.011 66.4795C212.056 66.4567 212.09 66.4339 212.113 66.4111C212.136 66.3883 212.17 66.3656 212.216 66.3428C212.763 65.9782 213.116 65.625 213.275 65.2832C213.435 64.9186 213.515 64.349 213.515 63.5742V29.3262ZM266.425 40.0244C267.724 38.9762 269.125 38.2015 270.629 37.7002C272.156 37.1989 273.922 36.9482 275.927 36.9482C280.552 36.9482 284.335 38.4749 287.274 41.5283C290.214 44.5817 291.684 48.501 291.684 53.2861C291.684 58.8232 289.929 63.1641 286.42 66.3086C282.911 69.4303 278.057 70.9912 271.859 70.9912C260.535 70.9912 254.872 65.7617 254.872 55.3027V29.3262C254.872 28.0957 254.804 27.207 254.667 26.6602C254.553 26.1133 254.371 25.7715 254.12 25.6348C254.006 25.5892 253.881 25.5322 253.744 25.4639C253.63 25.3727 253.482 25.2816 253.3 25.1904C252.092 24.5752 251.488 23.903 251.488 23.1738C251.488 22.832 251.579 22.5244 251.762 22.251C251.967 21.9548 252.229 21.7041 252.548 21.499C252.89 21.2712 253.368 21.0319 253.983 20.7812C254.621 20.5078 255.396 20.223 256.308 19.9268C256.535 19.8584 256.729 19.8014 256.889 19.7559C257.071 19.6875 257.219 19.6305 257.333 19.585C258.222 19.3115 258.985 19.0837 259.623 18.9014C260.284 18.7191 260.842 18.571 261.298 18.457C261.776 18.3203 262.175 18.2292 262.494 18.1836C262.836 18.138 263.144 18.1152 263.417 18.1152C264.488 18.1152 265.251 18.4115 265.707 19.0039C266.186 19.5964 266.425 20.6331 266.425 22.1143V40.0244ZM266.493 53.9014C266.493 58.2992 266.972 61.4665 267.929 63.4033C268.909 65.3174 270.481 66.2744 272.646 66.2744C274.901 66.2744 276.622 65.2946 277.807 63.335C278.992 61.3525 279.584 58.4928 279.584 54.7559C279.584 46.4388 277.362 42.2803 272.919 42.2803C272.03 42.2803 271.153 42.4854 270.287 42.8955C269.444 43.3057 268.715 43.8753 268.1 44.6045C267.484 45.3109 267.063 46.2565 266.835 47.4414C266.607 48.5807 266.493 50.734 266.493 53.9014ZM299.887 29.3262C299.887 28.0957 299.818 27.207 299.682 26.6602C299.545 26.1133 299.328 25.7715 299.032 25.6348C298.85 25.5436 298.576 25.4069 298.212 25.2246C296.89 24.6094 296.229 23.9258 296.229 23.1738C296.229 22.3535 296.913 21.6471 298.28 21.0547C300.331 20.2116 302.245 19.5508 304.022 19.0723C305.8 18.5938 307.247 18.3545 308.363 18.3545C309.548 18.3545 310.38 18.6279 310.858 19.1748C311.337 19.6989 311.576 20.6787 311.576 22.1143V63.5742C311.576 64.8275 312.009 65.8301 312.875 66.582C313.741 67.334 314.174 67.9378 314.174 68.3936C314.174 68.986 313.992 69.4076 313.627 69.6582C313.262 69.8861 312.624 70 311.713 70H299.477C298.52 70 297.859 69.8747 297.494 69.624C297.13 69.3734 296.947 68.9632 296.947 68.3936C296.947 67.7783 297.426 67.1403 298.383 66.4795C298.428 66.4567 298.474 66.4225 298.52 66.377C298.816 66.1719 299.055 65.9896 299.237 65.8301C299.42 65.6478 299.556 65.4541 299.647 65.249C299.739 65.0439 299.796 64.8161 299.818 64.5654C299.864 64.292 299.887 63.9616 299.887 63.5742V29.3262ZM331.605 57.9688C331.856 60.3158 332.699 62.1729 334.135 63.54C335.593 64.9072 337.45 65.5908 339.706 65.5908C342.577 65.5908 345.266 64.611 347.772 62.6514C347.955 62.4919 348.251 62.2298 348.661 61.8652C349.778 60.8398 350.769 60.3271 351.635 60.3271C352.136 60.3271 352.558 60.5208 352.899 60.9082C353.264 61.2956 353.446 61.7627 353.446 62.3096C353.446 64.3604 351.806 66.32 348.524 68.1885C345.266 70.057 341.449 70.9912 337.074 70.9912C331.651 70.9912 327.367 69.4873 324.223 66.4795C321.078 63.4717 319.506 59.3701 319.506 54.1748C319.506 48.9111 321.203 44.6842 324.599 41.4941C327.971 38.3268 332.517 36.7432 338.236 36.7432C342.452 36.7432 345.881 37.6546 348.524 39.4775C351.145 41.2777 352.455 43.5905 352.455 46.416C352.455 49.7884 350.735 52.4316 347.294 54.3457C343.853 56.237 338.624 57.4447 331.605 57.9688ZM331.264 52.8418C334.568 52.5228 337.143 51.7139 338.988 50.415C340.88 49.0706 341.825 47.43 341.825 45.4932C341.825 44.2399 341.483 43.2487 340.8 42.5195C340.116 41.7904 339.193 41.4258 338.031 41.4258C336.026 41.4258 334.397 42.3828 333.144 44.2969C331.89 46.1882 331.264 48.7402 331.264 51.9531V52.8418ZM370.023 42.1777C371.413 40.4004 373.02 39.1016 374.843 38.2812C376.666 37.4382 378.842 37.0166 381.371 37.0166C389.255 37.0166 393.197 41.6878 393.197 51.0303V63.5742C393.197 64.349 393.277 64.9186 393.437 65.2832C393.596 65.625 393.949 65.9782 394.496 66.3428C394.542 66.3656 394.576 66.3883 394.599 66.4111C394.621 66.4339 394.656 66.4567 394.701 66.4795C395.658 67.1403 396.137 67.7783 396.137 68.3936C396.137 68.986 395.954 69.4076 395.59 69.6582C395.225 69.8861 394.587 70 393.676 70H381.371C380.46 70 379.822 69.8861 379.457 69.6582C379.092 69.4076 378.91 68.986 378.91 68.3936C378.91 67.9606 379.343 67.3454 380.209 66.5479C381.075 65.7503 381.508 64.7591 381.508 63.5742V49.6973C381.508 47.0085 381.189 45.14 380.551 44.0918C379.936 43.0208 378.876 42.4854 377.372 42.4854C375.663 42.4854 374.319 43.1689 373.339 44.5361C372.382 45.8805 371.903 47.7832 371.903 50.2441V63.5742C371.903 64.8275 372.336 65.8301 373.202 66.582C374.068 67.334 374.501 67.9378 374.501 68.3936C374.501 68.986 374.319 69.4076 373.954 69.6582C373.59 69.8861 372.951 70 372.04 70H359.735C358.824 70 358.186 69.8861 357.821 69.6582C357.457 69.4076 357.274 68.986 357.274 68.3936C357.274 67.7783 357.753 67.1403 358.71 66.4795C358.756 66.4567 358.79 66.4339 358.812 66.4111C358.835 66.3883 358.869 66.3656 358.915 66.3428C359.462 65.9782 359.815 65.625 359.975 65.2832C360.134 64.9186 360.214 64.349 360.214 63.5742V45.835C360.214 45.1514 360.146 44.6273 360.009 44.2627C359.872 43.8753 359.644 43.5905 359.325 43.4082C359.234 43.3626 359.12 43.3171 358.983 43.2715C358.869 43.2031 358.721 43.1234 358.539 43.0322C357.514 42.5537 357.001 42.041 357.001 41.4941C357.001 40.651 357.582 39.9105 358.744 39.2725C359.473 38.8851 360.202 38.5433 360.932 38.2471C361.684 37.9281 362.447 37.6432 363.222 37.3926C364.794 36.9141 366.059 36.6748 367.016 36.6748C367.517 36.6748 367.938 36.766 368.28 36.9482C368.645 37.1305 368.941 37.4382 369.169 37.8711C369.42 38.304 369.602 38.8737 369.716 39.5801C369.853 40.2865 369.955 41.1523 370.023 42.1777ZM426.181 65.9326C423.583 69.305 419.812 70.9912 414.867 70.9912C410.447 70.9912 406.938 69.5443 404.34 66.6504C401.742 63.7565 400.443 59.8372 400.443 54.8926C400.443 49.7428 402.038 45.4362 405.229 41.9727C408.396 38.5319 412.372 36.8115 417.157 36.8115C418.798 36.8115 420.176 36.9368 421.293 37.1875C422.432 37.4382 423.458 37.8255 424.369 38.3496V29.0527C424.369 27.6628 424.267 26.7285 424.062 26.25C423.902 25.7715 423.515 25.3499 422.899 24.9854C422.785 24.9398 422.649 24.8828 422.489 24.8145C422.353 24.7233 422.17 24.6208 421.942 24.5068C420.757 23.96 420.165 23.2992 420.165 22.5244C420.165 21.4307 421.396 20.4508 423.856 19.585C426.34 18.7191 429.314 18.2861 432.777 18.2861C433.962 18.2861 434.76 18.5596 435.17 19.1064C435.58 19.6533 435.785 20.8268 435.785 22.627V60.9766C435.785 62.8451 435.899 64.0527 436.127 64.5996C436.355 65.1009 436.845 65.5908 437.597 66.0693C437.642 66.0921 437.688 66.1263 437.733 66.1719C437.802 66.1947 437.882 66.2288 437.973 66.2744C438.702 66.6618 439.066 67.1859 439.066 67.8467C439.066 69.2822 438.178 70 436.4 70H428.778C427.183 70 426.34 69.3164 426.249 67.9492L426.181 65.9326ZM424.438 56.8408V48.501C424.438 44.1715 422.831 42.0068 419.618 42.0068C417.408 42.0068 415.676 43.0664 414.423 45.1855C413.17 47.2591 412.543 50.1416 412.543 53.833C412.543 57.2054 413.135 59.8258 414.32 61.6943C415.528 63.54 417.203 64.4629 419.345 64.4629C420.985 64.4629 422.239 63.8135 423.104 62.5146C423.993 61.2158 424.438 59.3245 424.438 56.8408Z" fill="black"/>
<path d="M55 6C57.2091 6 59 7.79086 59 10L59 60C59 62.2091 57.2091 64 55 64L22 64C19.7909 64 18 62.2091 18 60L18 7C18 6.44771 18.4477 6 19 6L55 6Z" fill="#BEE73F" fill-opacity="0.98"/>
<path d="M28 6L28 64L22.6243 64C20.0704 64 18 61.9296 18 59.3757L18 6.90385C18 6.40467 18.4047 6 18.9038 6L28 6Z" fill="#4A6A1F"/>
<g clip-path="url(#clip0_1_102)">
<path d="M17.3124 19.2375L18.3748 18.6293C19.5466 17.9585 20.8829 17.6293 22.2323 17.6788L23.4556 17.7238" stroke="#BEE73F" stroke-width="1.80769"/>
<path d="M17.3124 22.8529L18.3748 22.2447C19.5466 21.5739 20.8829 21.2447 22.2323 21.2942L23.4556 21.3392" stroke="#BEE73F" stroke-width="1.80769"/>
</g>
<path d="M19 58C19 56.3431 20.3431 55 22 55H58V60C58 61.6569 56.6569 63 55 63H22C20.3431 63 19 61.6569 19 60V58Z" fill="#FCFAEB" stroke="#45631C" stroke-width="2"/>
<path d="M37 22C39.2091 22 41 23.7909 41 26L41 76C41 78.2091 39.2091 80 37 80L4 80C1.79086 80 -2.45698e-06 78.2091 -2.36041e-06 76L-4.37113e-08 23C-1.95702e-08 22.4477 0.447715 22 1 22L37 22Z" fill="#027F73" fill-opacity="0.97"/>
<path d="M10 22L10 80L4.62433 80C2.07038 80 4.16262e-07 77.9296 5.27898e-07 75.3757L2.82151e-06 22.9038C2.84333e-06 22.4047 0.404669 22 0.90385 22L10 22Z" fill="#00534F"/>
<g clip-path="url(#clip1_1_102)">
<path d="M-0.687628 35.2375L0.374752 34.6293C1.54662 33.9585 2.8829 33.6293 4.23227 33.6788L5.45556 33.7238" stroke="#027F73" stroke-width="1.80769"/>
<path d="M-0.687628 38.8529L0.374752 38.2447C1.54662 37.5739 2.8829 37.2447 4.23227 37.2942L5.45556 37.3392" stroke="#027F73" stroke-width="1.80769"/>
</g>
<path d="M1 74C1 72.3431 2.34315 71 4 71H40V76C40 77.6569 38.6569 79 37 79H4C2.34315 79 1 77.6569 1 76V74Z" fill="#FCFAEB" stroke="#004643" stroke-width="2"/>
<defs>
<clipPath id="clip0_1_102">
<rect width="5.88551" height="7.56709" fill="white" transform="translate(18 16.5887)"/>
</clipPath>
<clipPath id="clip1_1_102">
<rect width="5.88551" height="7.56709" fill="white" transform="translate(0 32.5887)"/>
</clipPath>
</defs>
</svg>
